<svg viewBox="0 0 21.01 128.76" height="128.76" width="21.01" shape-rendering="geometricPrecision">
  <path fill="#000" d="M13 21.56l.72 23.58q0 7.38-1.2 11.72-1.2 4.34-4.1 6.5 3.05 1.9 4.17 5.8 1.12 3.76 1.12 11.7l-.9 25.47q0 5.65.73 8.25.8 2.6 2.8 2.6t3.62-.72l.8 11q-3.37 1.3-6.33 1.3-4.9 0-7.62-4.92-2.65-4.92-2.65-13.45l.88-27.65q0-6.07-.96-9.7-.9-3.6-4.1-4.33v-10.7q3.3-.73 4.17-4.2.96-3.47.96-10.7L4.5 18.65q0-8.82 2.56-13.74Q9.63 0 14.6 0q3.2 0 6.4 1.45l-.8 10.7q-2.23-.72-3.2-.72-2.48 0-3.3 2.3-.7 2.18-.7 7.82z"/>
</svg>