<svg viewBox="0 0 35.2 35.2" xml:space="preserve" xmlns="http://www.w3.org/2000/svg"><g><path d="M78 109.8a17.6 17.6 0 1 0 0 35.2 17.6 17.6 0 0 0 0-35.2zm0 4.2a13.4 13.4 0 1 1 0 26.8 13.4 13.4 0 1 1 0-26.8z" color="#000" fill="#040707" style="-inkscape-stroke:none" transform="translate(-60.4 -109.8)"/><path d="M26.4 17.6a8.8 8.8 0 0 0-8.8-8.8 8.8 8.8 0 0 0-8.8 8.8 8.8 8.8 0 0 0 8.8 8.8 8.8 8.8 0 0 0 8.8-8.8zm7.3-9.3a4.4 4.4 0 0 0-4.4-4.4A4.4 4.4 0 0 0 25 8.3a4.4 4.4 0 0 0 4.4 4.4 4.4 4.4 0 0 0 4.4-4.4z" fill="#dc7f28"/></g></svg>
