<svg viewBox="0 0 21.014053 128.7599" height="128.76" width="21.014" preserveAspectRatio="none">
    <path d="M12.993 21.556l.722 23.582q0 7.38-1.203 11.72-1.203 4.34-4.09 6.51 3.047 1.88 4.17 5.786 1.123 3.762 1.123 11.72l-.882 25.46q0 5.644.722 8.248.802 2.604 2.807 2.604t3.61-.723l.8 10.995q-3.367 1.302-6.335 1.302-4.892 0-7.62-4.92-2.646-4.918-2.646-13.454l.884-27.632q0-6.077-.962-9.694Q3.21 69.444 0 68.72V58.014q3.288-.723 4.17-4.195.963-3.474.963-10.708l-.64-24.45q0-8.825 2.565-13.744Q9.625 0 14.598 0q3.208 0 6.416 1.447l-.802 10.706q-2.246-.724-3.208-.724-2.487 0-3.29 2.313-.72 2.17-.72 7.812z" font-size="109.529"/>
</svg>