<svg xmlns="http://www.w3.org/2000/svg" width="304" height="304" viewBox="0 0 304 304"><path d="M44.100018 224c.46327-2.28224 2.481024-4 4.899982-4 2.761424 0 5 2.23858 5 5s-2.238576 5-5 5c-2.418958 0-4.436712-1.71776-4.899982-4H0v-2zm160.000002 48c.46327-2.28224 2.48102-4 4.89998-4 2.76142 0 5 2.23858 5 5s-2.23858 5-5 5c-2.41896 0-4.43671-1.71776-4.89998-4H82v-2zm57.79996-46c-.46327 2.28224-2.48102 4-4.89998 4-2.76142 0-5-2.23858-5-5s2.23858-5 5-5c2.41896 0 4.43671 1.71776 4.89998 4H304v2zm0 16c-.46327 2.28224-2.48102 4-4.89998 4-2.76142 0-5-2.23858-5-5s2.23858-5 5-5c2.41896 0 4.43671 1.71776 4.89998 4H304v2zm6.20004-114c.46327-2.28224 2.48102-4 4.89998-4 2.76142 0 5 2.23858 5 5s-2.23858 5-5 5c-2.41896 0-4.43671-1.71776-4.89998-4h-86.20004c-.46327 2.28224-2.48102 4-4.89998 4-2.76142 0-5-2.23858-5-5s2.23858-5 5-5c2.41896 0 4.43671 1.71776 4.89998 4zM12.100018 80c.46327-2.28224 2.481024-4 4.899982-4 2.761424 0 5 2.238576 5 5s-2.238576 5-5 5c-2.418958 0-4.436712-1.71776-4.899982-4H0v-2zm185.799962 34c-.46327 2.28224-2.48102 4-4.89998 4-2.76142 0-5-2.23858-5-5s2.23858-5 5-5c2.41896 0 4.43671 1.71776 4.89998 4h86.20004c.46327-2.28224 2.48102-4 4.89998-4 2.76142 0 5 2.23858 5 5s-2.23858 5-5 5c-2.41896 0-4.43671-1.71776-4.89998-4zM258 12.100018c2.28224.46327 4 2.481024 4 4.899982 0 2.761424-2.23858 5-5 5s-5-2.238576-5-5c0-2.418958 1.71776-4.436712 4-4.899982V0h2zM194 220.10002c2.28224.46327 4 2.48102 4 4.89998 0 2.76142-2.23858 5-5 5s-5-2.23858-5-5c0-2.41896 1.71776-4.43671 4-4.89998v-54.20004c-2.28224-.46327-4-2.48102-4-4.89998 0-2.76142 2.23858-5 5-5s5 2.23858 5 5c0 2.41896-1.71776 4.43671-4 4.89998zm48-198.200038c2.28224-.46327 4-2.481024 4-4.899982 0-2.761424-2.23858-5-5-5s-5 2.238576-5 5c0 2.418958 1.71776 4.436712 4 4.899982V82h64v-2h-62zm16 16c2.28224-.46327 4-2.481024 4-4.899982 0-2.761424-2.23858-5-5-5s-5 2.238576-5 5c0 2.418958 1.71776 4.436712 4 4.899982V66h48v-2h-46zM130 133.89998c2.28224-.46327 4-2.48102 4-4.89998 0-2.76142-2.23858-5-5-5s-5 2.23858-5 5c0 2.41896 1.71776 4.43671 4 4.89998V210h16v10.10002c-2.28224.46327-4 2.48102-4 4.89998 0 2.76142 2.23858 5 5 5s5-2.23858 5-5c0-2.41896-1.71776-4.43671-4-4.89998V208h-16zM124.10002 112c.46327-2.28224 2.48102-4 4.89998-4 2.76142 0 5 2.23858 5 5s-2.23858 5-5 5c-2.41896 0-4.43671-1.71776-4.89998-4H114v48H85.899982c-.46327 2.28224-2.481024 4-4.899982 4-2.761424 0-5-2.23858-5-5s2.238576-5 5-5c2.418958 0 4.436712 1.71776 4.899982 4H112v-48zm-6.20004 130c-.46327 2.28224-2.48102 4-4.89998 4-2.76142 0-5-2.23858-5-5s2.23858-5 5-5c2.41896 0 4.43671 1.71776 4.89998 4H176v-74.10002c-2.28224-.46327-4-2.48102-4-4.89998 0-2.76142 2.23858-5 5-5s5 2.23858 5 5c0 2.41896-1.71776 4.43671-4 4.89998V242h-1zM66 284.10002c2.28224.46327 4 2.48102 4 4.89998 0 2.76142-2.238576 5-5 5s-5-2.23858-5-5c0-2.41896 1.71776-4.43671 4-4.89998V274H50v30h-2v-32h18zM236.10002 176c.46327-2.28224 2.48102-4 4.89998-4 2.76142 0 5 2.23858 5 5s-2.23858 5-5 5c-2.41896 0-4.43671-1.71776-4.89998-4H226v94h48v32h-2v-30h-48v-98zm25.79996-30c-.46327 2.28224-2.48102 4-4.89998 4-2.76142 0-5-2.23858-5-5s2.23858-5 5-5c2.41896 0 4.43671 1.71776 4.89998 4H274v44.10002c2.28224.46327 4 2.48102 4 4.89998 0 2.76142-2.23858 5-5 5s-5-2.23858-5-5c0-2.41896 1.71776-4.43671 4-4.89998V146zM53.899982 34c-.46327 2.28224-2.481024 4-4.899982 4-2.761424 0-5-2.238576-5-5s2.238576-5 5-5c2.418958 0 4.436712 1.71776 4.899982 4H80V0h2v34h-1zM114 37.899982c2.28224-.46327 4-2.481024 4-4.899982 0-2.761424-2.23858-5-5-5s-5 2.238576-5 5c0 2.418958 1.71776 4.436712 4 4.899982V64H80v64H69.899982c-.46327-2.28224-2.481024-4-4.899982-4-2.761424 0-5 2.23858-5 5s2.238576 5 5 5c2.418958 0 4.436712-1.71776 4.899982-4 0 0 9.248016 2.852 12.100018 0 .353553-.35355 0 9.16667 0-1.5V66h32zM101.89998 82c-.46327 2.28224-2.481022 4-4.89998 4-2.761424 0-5-2.238576-5-5s2.238576-5 5-5c2.418958 0 4.43671 1.71776 4.89998 4H128V37.899982c-2.28224-.46327-4-2.481024-4-4.899982 0-2.761424 2.23858-5 5-5s5 2.238576 5 5c0 2.418958-1.71776 4.436712-4 4.899982V82h-1.5zm16-64c-.46327 2.28224-2.48102 4-4.89998 4-2.76142 0-5-2.238576-5-5s2.23858-5 5-5c2.41896 0 4.43671 1.71776 4.89998 4H146v44.100018c2.28224.46327 4 2.481024 4 4.899982 0 2.761424-2.23858 5-5 5s-5-2.238576-5-5c0-2.418958 1.71776-4.436712 4-4.899982V18zm102.20004 270c.46327-2.28224 2.48102-4 4.89998-4 2.76142 0 5 2.23858 5 5s-2.23858 5-5 5c-2.41896 0-4.43671-1.71776-4.89998-4H98v14h-2v-16h1zM53.899982 18c-.46327 2.28224-2.481024 4-4.899982 4-2.761424 0-5-2.238576-5-5s2.238576-5 5-5c2.418958 0 4.436712 1.71776 4.899982 4H64V2H48V0h18v18h-1zM165.89998 50c-.46327 2.28224-2.48102 4-4.89998 4-2.76142 0-5-2.238576-5-5s2.23858-5 5-5c2.41896 0 4.43671 1.71776 4.89998 4H192V0h50v2h-48v48h-1zm-48-48c-.46327 2.28224-2.48102 4-4.89998 4-2.76142 0-5-2.238576-5-5 0-.342466.0344-.67689.10002-1h2.07069C110.06015.31278 110 .649365 110 1c0 1.656854 1.34315 3 3 3s3-1.343146 3-3c0-.350635-.0601-.68722-.17071-1H178v34h-18V21.899982c-2.28224-.46327-4-2.481024-4-4.899982 0-2.761424 2.23858-5 5-5s5 2.238576 5 5c0 2.418958-1.71776 4.436712-4 4.899982V32h14V2zM146 188.10002c2.28224.46327 4 2.48102 4 4.89998 0 2.76142-2.23858 5-5 5s-5-2.23858-5-5c0-2.41896 1.71776-4.43671 4-4.89998v-76.51423L175.58579 80H224V21.899982c-2.28224-.46327-4-2.481024-4-4.899982 0-2.761424 2.23858-5 5-5s5 2.238576 5 5c0 2.418958-1.71776 4.436712-4 4.899982V82h-49.58579L146 112.41421zm-128-32c2.28224.46327 4 2.48102 4 4.89998 0 2.76142-2.238576 5-5 5s-5-2.23858-5-5c0-2.41896 1.71776-4.43671 4-4.89998v-3.51423l48-48V48h32V0h2v50H66v55.41421l-48 48zm16-86.200038c2.28224-.46327 4-2.481024 4-4.899982 0-2.761424-2.238576-5-5-5s-5 2.238576-5 5c0 2.418958 1.71776 4.436712 4 4.899982v18.685804L0 120.58579v2.82842l34-33.999996v-1.62132zM12.100018 32c.46327-2.28224 2.481024-4 4.899982-4 2.761424 0 5 2.238576 5 5s-2.238576 5-5 5c-2.418958 0-4.436712-1.71776-4.899982-4H9.414214L0 43.414214v-2.828428L8.585786 32h1.62132zM277.89998 50c-.46327 2.28224-2.48102 4-4.89998 4-2.76142 0-5-2.238576-5-5s2.23858-5 5-5c2.41896 0 4.43671 1.71776 4.89998 4h18.68581L304 40.585786v2.828428L297.41421 50h-1.62132zm-16 160c-.46327 2.28224-2.48102 4-4.89998 4-2.76142 0-5-2.23858-5-5s2.23858-5 5-5c2.41896 0 4.43671 1.71776 4.89998 4H288v-71.41421l16-16v2.82842l-14 14V210h-1zM53.899982 242c-.46327 2.28224-2.481024 4-4.899982 4-2.761424 0-5-2.23858-5-5s2.238576-5 5-5c2.418958 0 4.436712 1.71776 4.899982 4H64v-22.58579L40.585786 194H21.899982c-.46327 2.28224-2.481024 4-4.899982 4-2.761424 0-5-2.23858-5-5s2.238576-5 5-5c2.418958 0 4.436712 1.71776 4.899982 4h19.514232L66 216.58579V242h-1zm150.200038 14c.46327-2.28224 2.48102-4 4.89998-4 2.76142 0 5 2.23858 5 5s-2.23858 5-5 5c-2.41896 0-4.43671-1.71776-4.89998-4H96v-56.59814L56.59814 162H37.899983c-.46327 2.28224-2.481024 4-4.899982 4-2.761422 0-5-2.23858-5-5s2.238578-5 5-5c2.41896 0 4.436714 1.71776 4.899984 4H57.40186L98 200.59814V256zM97 84c1.656854 0 3-1.343146 3-3s-1.343146-3-3-3-3 1.343146-3 3 1.343146 3 3 3zm32 32c1.65685 0 3-1.34315 3-3s-1.34315-3-3-3-3 1.34315-3 3 1.34315 3 3 3zm0 16c1.65685 0 3-1.34315 3-3s-1.34315-3-3-3-3 1.34315-3 3 1.34315 3 3 3zm-48 32c1.656854 0 3-1.34315 3-3s-1.343146-3-3-3-3 1.34315-3 3 1.343146 3 3 3zm32 80c1.65685 0 3-1.34315 3-3s-1.34315-3-3-3-3 1.34315-3 3 1.34315 3 3 3zm32-16c1.65685 0 3-1.34315 3-3s-1.34315-3-3-3-3 1.34315-3 3 1.34315 3 3 3zm0-32c1.65685 0 3-1.34315 3-3s-1.34315-3-3-3-3 1.34315-3 3 1.34315 3 3 3zm48 32c1.65685 0 3-1.34315 3-3s-1.34315-3-3-3-3 1.34315-3 3 1.34315 3 3 3zm-16-64c1.65685 0 3-1.34315 3-3s-1.34315-3-3-3-3 1.34315-3 3 1.34315 3 3 3zm16 0c1.65685 0 3-1.34315 3-3s-1.34315-3-3-3-3 1.34315-3 3 1.34315 3 3 3zm16 96c1.65685 0 3-1.34315 3-3s-1.34315-3-3-3-3 1.34315-3 3 1.34315 3 3 3zm0 16c1.65685 0 3-1.34315 3-3s-1.34315-3-3-3-3 1.34315-3 3 1.34315 3 3 3zm16 16c1.65685 0 3-1.34315 3-3s-1.34315-3-3-3-3 1.34315-3 3 1.34315 3 3 3zm16-112c1.65685 0 3-1.34315 3-3s-1.34315-3-3-3-3 1.34315-3 3 1.34315 3 3 3zm16-32c1.65685 0 3-1.34315 3-3s-1.34315-3-3-3-3 1.34315-3 3 1.34315 3 3 3zm16-16c1.65685 0 3-1.34315 3-3s-1.34315-3-3-3-3 1.34315-3 3 1.34315 3 3 3zm-96 0c1.65685 0 3-1.34315 3-3s-1.34315-3-3-3-3 1.34315-3 3 1.34315 3 3 3zm16-16c1.65685 0 3-1.34315 3-3s-1.34315-3-3-3-3 1.34315-3 3 1.34315 3 3 3zm96 0c1.65685 0 3-1.34315 3-3s-1.34315-3-3-3-3 1.34315-3 3 1.34315 3 3 3zm-16-64c1.65685 0 3-1.343146 3-3s-1.34315-3-3-3-3 1.343146-3 3 1.34315 3 3 3zm-16-16c1.65685 0 3-1.343146 3-3s-1.34315-3-3-3-3 1.343146-3 3 1.34315 3 3 3zm0-16c1.65685 0 3-1.343146 3-3s-1.34315-3-3-3-3 1.343146-3 3 1.34315 3 3 3zm-16 0c1.65685 0 3-1.343146 3-3s-1.34315-3-3-3-3 1.343146-3 3 1.34315 3 3 3zm-16 0c1.65685 0 3-1.343146 3-3s-1.34315-3-3-3-3 1.343146-3 3 1.34315 3 3 3zM49 36c1.656854 0 3-1.343146 3-3s-1.343146-3-3-3-3 1.343146-3 3 1.343146 3 3 3zm-32 0c1.656854 0 3-1.343146 3-3s-1.343146-3-3-3-3 1.343146-3 3 1.343146 3 3 3zm16 32c1.656854 0 3-1.343146 3-3s-1.343146-3-3-3-3 1.343146-3 3 1.343146 3 3 3zm16-48c1.656854 0 3-1.343146 3-3s-1.343146-3-3-3-3 1.343146-3 3 1.343146 3 3 3zm16 272c1.656854 0 3-1.34315 3-3s-1.343146-3-3-3-3 1.34315-3 3 1.343146 3 3 3zm-16-64c1.656854 0 3-1.34315 3-3s-1.343146-3-3-3-3 1.34315-3 3 1.343146 3 3 3zm0 16c1.656854 0 3-1.34315 3-3s-1.343146-3-3-3-3 1.34315-3 3 1.343146 3 3 3zm64-208c1.65685 0 3-1.343146 3-3s-1.34315-3-3-3-3 1.343146-3 3 1.34315 3 3 3zm16 0c1.65685 0 3-1.343146 3-3s-1.34315-3-3-3-3 1.343146-3 3 1.34315 3 3 3zm-16-16c1.65685 0 3-1.343146 3-3s-1.34315-3-3-3-3 1.343146-3 3 1.34315 3 3 3zm32 48c1.65685 0 3-1.343146 3-3s-1.34315-3-3-3-3 1.343146-3 3 1.34315 3 3 3zm16-16c1.65685 0 3-1.343146 3-3s-1.34315-3-3-3-3 1.343146-3 3 1.34315 3 3 3zm0-32c1.65685 0 3-1.343146 3-3s-1.34315-3-3-3-3 1.343146-3 3 1.34315 3 3 3zm112 176c1.65685 0 3-1.34315 3-3s-1.34315-3-3-3-3 1.34315-3 3 1.34315 3 3 3zm-16 16c1.65685 0 3-1.34315 3-3s-1.34315-3-3-3-3 1.34315-3 3 1.34315 3 3 3zm0 16c1.65685 0 3-1.34315 3-3s-1.34315-3-3-3-3 1.34315-3 3 1.34315 3 3 3zm0 16c1.65685 0 3-1.34315 3-3s-1.34315-3-3-3-3 1.34315-3 3 1.34315 3 3 3zM17 196c1.656854 0 3-1.34315 3-3s-1.343146-3-3-3-3 1.34315-3 3 1.343146 3 3 3zm0-32c1.656854 0 3-1.34315 3-3s-1.343146-3-3-3-3 1.34315-3 3 1.343146 3 3 3zm16 0c1.656854 0 3-1.34315 3-3s-1.343146-3-3-3-3 1.34315-3 3 1.343146 3 3 3zM17 84c1.656854 0 3-1.343146 3-3s-1.343146-3-3-3-3 1.343146-3 3 1.343146 3 3 3zm48 48c1.656854 0 3-1.34315 3-3s-1.343146-3-3-3-3 1.34315-3 3 1.343146 3 3 3zM34 39.792893V0h-2v40.585786L8.585786 64H0v2h9.414213L34 41.414214zM2 300.10002V258h14v46h2v-48H0v46.17071C.31278 302.06015.649365 302 1 302c1.30622 0 2.417458.83481 2.829294 2h2.070688C5.5023 302.04087 3.95913 300.4977 2 300.10002zM34 241v63h-2v-62H0v-2h34zM17 18h1V0h-2v16H0v2zm273-2V0h-2v18h16v-2zm-32 273v15h-2v-14h-14v14h-2v-16h18zM80 272h2v32h-2zm37.89998 32c-.46327-2.28224-2.48102-4-4.89998-4s-4.43671 1.71776-4.89998 4h2.07069c.41183-1.16519 1.52307-2 2.82929-2s2.41746.83481 2.82929 2zM5.899982 0C5.96557.32311 6 .657534 6 1c0 2.761424-2.238576 5-5 5-.342466 0-.67689-.03443-1-.100018V3.829294C.31278 3.939846.649365 4 1 4c1.656854 0 3-1.343146 3-3 0-.350635-.060154-.68722-.170706-1zM300.10002 0C300.03443.32311 300 .657534 300 1c0 2.418958 1.71776 4.436712 4 4.899982V3.829294C302.83481 3.417458 302 2.30622 302 1c0-.350635.0602-.68722.17071-1zM304 300.10002c-1.95913.39768-3.5023 1.94085-3.89998 3.89998h2.07069c.30128-.85241.97688-1.52801 1.82929-1.82929z" fill-rule="evenodd" fill='#000' fill-opacity='1' /></svg>