<?xml version="1.0" encoding="UTF-8" standalone="no"?>
<!-- Created with Inkscape (http://www.inkscape.org/) -->

<svg
   xmlns:dc="http://purl.org/dc/elements/1.1/"
   xmlns:cc="http://creativecommons.org/ns#"
   xmlns:rdf="http://www.w3.org/1999/02/22-rdf-syntax-ns#"
   xmlns:svg="http://www.w3.org/2000/svg"
   xmlns="http://www.w3.org/2000/svg"
   xmlns:sodipodi="http://sodipodi.sourceforge.net/DTD/sodipodi-0.dtd"
   xmlns:inkscape="http://www.inkscape.org/namespaces/inkscape"
   width="359.88336mm"
   height="172.45067mm"
   viewBox="0 0 1275.1773 611.04567"
   id="svg4877"
   version="1.1"
   inkscape:version="0.91 r13725"
   sodipodi:docname="job-gliph.svg">
  <defs
     id="defs4879" />
  <sodipodi:namedview
     id="base"
     pagecolor="#ffffff"
     bordercolor="#666666"
     borderopacity="1.0"
     inkscape:pageopacity="0.0"
     inkscape:pageshadow="2"
     inkscape:zoom="0.35"
     inkscape:cx="85.445742"
     inkscape:cy="-480.19148"
     inkscape:document-units="px"
     inkscape:current-layer="layer1"
     showgrid="false"
     fit-margin-top="0"
     fit-margin-left="0"
     fit-margin-right="0"
     fit-margin-bottom="0"
     inkscape:window-width="1920"
     inkscape:window-height="1017"
     inkscape:window-x="-8"
     inkscape:window-y="-8"
     inkscape:window-maximized="1" />
  <metadata
     id="metadata4882">
    <rdf:RDF>
      <cc:Work
         rdf:about="">
        <dc:format>image/svg+xml</dc:format>
        <dc:type
           rdf:resource="http://purl.org/dc/dcmitype/StillImage" />
        <dc:title></dc:title>
      </cc:Work>
    </rdf:RDF>
  </metadata>
  <g
     inkscape:label="Livello 1"
     inkscape:groupmode="layer"
     id="layer1"
     transform="translate(243.30288,558.87495)">
    <g
       style="font-style:normal;font-weight:normal;font-size:medium;line-height:5.00000007%;font-family:sans-serif;letter-spacing:-2.27858758px;word-spacing:0px;display:inline;fill:#313131;fill-opacity:0.08235294;stroke:none;stroke-width:1px;stroke-linecap:butt;stroke-linejoin:miter;stroke-opacity:1"
       transform="matrix(9.6352513,0,0,9.6352513,-9694.2801,-3236.6667)"
       id="g3595">
      <path
         style="fill:#313131;fill-opacity:0.03921569"
         inkscape:connector-curvature="0"
         d="m 1028.4383,299.61167 q -9.7352,-5.28481 -15.8544,-15.85443 -6.1193,10.01332 -14.18558,15.85443 l 30.03998,0 z m 13.0729,5.8411 q -4.7285,-1.11259 -12.5166,-5.56295 l 0,5.8411 -31.43072,0 0,-5.56296 q -7.50999,5.28481 -14.18554,7.23185 l -2.50333,-6.67555 q 19.47039,-5.28481 28.92739,-22.80813 l 5.8411,0.83444 q 2.2252,0.27815 0.2781,1.66889 8.9008,13.3511 28.3711,18.35776 l -2.7815,6.67555 z m -6.1192,35.32479 q -2.2252,-3.05963 -5.2848,-5.84111 l -40.33146,4.45037 q -1.39074,1.39074 -2.50333,0.55629 l -1.94704,-6.95369 11.40407,-0.5563 7.78816,-14.18554 -20.02667,0 0,-6.11926 57.02027,0 0,6.11926 -30.0399,0 -8.3445,13.90739 22.8082,-1.66888 q -3.616,-3.33778 -8.0663,-6.67555 l 5.0066,-3.33778 q 13.3511,10.01333 18.3578,16.68887 l -5.8411,3.61593 z"
         id="path3581" />
      <path
         style="fill:#313131;fill-opacity:0.03921569"
         inkscape:connector-curvature="0"
         d="m 1067.3256,290.15464 5.8411,0 1.1126,-1.11259 4.1722,4.17222 -1.947,1.39074 q -3.3378,6.3974 -9.1789,13.62924 6.9537,2.22519 12.2385,5.84111 l -3.0596,6.11925 q -4.7285,-3.89407 -9.1789,-6.3974 l 0,27.53664 -5.563,0 0,-27.53664 q -5.0066,4.45037 -10.2914,7.50999 l -2.5034,-5.56295 q 13.3511,-7.23185 20.8611,-20.3048 l -18.3577,0 0,-5.28481 10.2914,0 0,-11.96036 5.2849,0 q 2.2251,0.27815 0.2781,1.66889 l 0,10.29147 z m 30.3181,-10.29147 q 2.7815,0.55629 0.2782,2.22518 l 0,14.74184 12.7948,0 0,6.11925 -12.7948,0 0,28.92738 15.2981,0 0,6.11926 -38.1063,0 0,-6.11926 16.4108,0 0,-28.92738 -11.9604,0 0,-6.11925 11.9604,0 0,-16.96702 6.1192,0 z"
         id="path3583" />
    </g>
  </g>
</svg>
