<svg xmlns="http://www.w3.org/2000/svg" version="1.0" viewBox="0 0 128 128"><style>@media (prefers-color-scheme:dark){.path{fill:#e5e5e5}}</style><path fill="#4d4d4d" d="M85.549 38.797c-3.1 3-3.35 3.35-2.7 4.15.9 1 .85 1 9.25 11.1 3.5 4.25 6.7 8.1 7.05 8.55.5.7-.6 2.5-7.65 12.25l-8.25 11.45 3.3 3.15c1.85 1.75 3.5 3.1 3.7 3 .2-.1 2.85-2.4 5.8-5.2 3-2.8 6.05-5.6 6.75-6.25 4.05-3.7 11.35-10.4 12.55-11.6 2.95-2.8 3.6-6.55 1.85-10.15-.8-1.75-3.5-4.15-14.5-12.9-7.4-5.95-13.5-10.8-13.55-10.8-.1 0-1.7 1.45-3.6 3.25zm-72.7 11.25c-.05 5.2.1 7 .55 7.05 2.9.2 58.05.15 58.35-.05.25-.15.5-3.3.55-7l.05-6.75-29.7-.15-29.7-.1zm.15 21.7c-.1.3-.15 3.45-.1 7.05l.1 6.5 29.4.05c32.2.05 30 .25 29.95-2.95 0-.9 0-3.75-.05-6.45l-.05-4.8h-29.55c-21.8 0-29.55.15-29.7.6z" class="path"/></svg>
