<?xml version="1.0" encoding="UTF-8" standalone="no"?>
<svg
   xmlns:dc="http://purl.org/dc/elements/1.1/"
   xmlns:cc="http://creativecommons.org/ns#"
   xmlns:rdf="http://www.w3.org/1999/02/22-rdf-syntax-ns#"
   xmlns:svg="http://www.w3.org/2000/svg"
   xmlns="http://www.w3.org/2000/svg"
   xmlns:sodipodi="http://sodipodi.sourceforge.net/DTD/sodipodi-0.dtd"
   xmlns:inkscape="http://www.inkscape.org/namespaces/inkscape"
   width="304"
   height="304"
   viewBox="0 0 304 304"
   id="svg4136"
   version="1.1"
   inkscape:version="0.91 r13725"
   sodipodi:docname="circuits.svg">
  <metadata
     id="metadata4144">
    <rdf:RDF>
      <cc:Work
         rdf:about="">
        <dc:format>image/svg+xml</dc:format>
        <dc:type
           rdf:resource="http://purl.org/dc/dcmitype/StillImage" />
      </cc:Work>
    </rdf:RDF>
  </metadata>
  <defs
     id="defs4142" />
  <sodipodi:namedview
     pagecolor="#ffffff"
     bordercolor="#666666"
     borderopacity="1"
     objecttolerance="10"
     gridtolerance="10"
     guidetolerance="10"
     inkscape:pageopacity="0"
     inkscape:pageshadow="2"
     inkscape:window-width="1920"
     inkscape:window-height="1017"
     id="namedview4140"
     showgrid="false"
     inkscape:zoom="1.9771078"
     inkscape:cx="227.64444"
     inkscape:cy="121.67058"
     inkscape:window-x="-8"
     inkscape:window-y="-8"
     inkscape:window-maximized="1"
     inkscape:current-layer="svg4136" />
  <path
     d="m 204.10002,272 c 0.46327,-2.28224 2.48102,-4 4.89998,-4 2.76142,0 5,2.23858 5,5 0,2.76142 -2.23858,5 -5,5 -2.41896,0 -4.43671,-1.71776 -4.89998,-4 L 82,274 l 0,-2 z m 57.79996,-30 c -0.46327,2.28224 -2.48102,4 -4.89998,4 -2.76142,0 -5,-2.23858 -5,-5 0,-2.76142 2.23858,-5 5,-5 2.41896,0 4.43671,1.71776 4.89998,4 L 304,240 l 0,2 z m 6.20004,-114 c 0.46327,-2.28224 2.48102,-4 4.89998,-4 2.76142,0 5,2.23858 5,5 0,2.76142 -2.23858,5 -5,5 -2.41896,0 -4.43671,-1.71776 -4.89998,-4 l -86.20004,0 c -0.46327,2.28224 -2.48102,4 -4.89998,4 -2.76142,0 -5,-2.23858 -5,-5 0,-2.76142 2.23858,-5 5,-5 2.41896,0 4.43671,1.71776 4.89998,4 z M 12.100018,80 C 12.563288,77.71776 14.581042,76 17,76 c 2.761424,0 5,2.238576 5,5 0,2.761424 -2.238576,5 -5,5 -2.418958,0 -4.436712,-1.71776 -4.899982,-4 L 0,82 0,80 Z M 258,12.100018 c 2.28224,0.46327 4,2.481024 4,4.899982 0,2.761424 -2.23858,5 -5,5 -2.76142,0 -5,-2.238576 -5,-5 0,-2.418958 1.71776,-4.436712 4,-4.899982 L 256,0 258,0 Z M 194,220.10002 c 2.28224,0.46327 4,2.48102 4,4.89998 0,2.76142 -2.23858,5 -5,5 -2.76142,0 -5,-2.23858 -5,-5 0,-2.41896 1.71776,-4.43671 4,-4.89998 l 0,-54.20004 c -2.28224,-0.46327 -4,-2.48102 -4,-4.89998 0,-2.76142 2.23858,-5 5,-5 2.76142,0 5,2.23858 5,5 0,2.41896 -1.71776,4.43671 -4,4.89998 z M 242,21.899982 c 2.28224,-0.46327 4,-2.481024 4,-4.899982 0,-2.761424 -2.23858,-5 -5,-5 -2.76142,0 -5,2.238576 -5,5 0,2.418958 1.71776,4.436712 4,4.899982 L 240,82 l 64,0 0,-2 -62,0 z m 16,16 c 2.28224,-0.46327 4,-2.481024 4,-4.899982 0,-2.761424 -2.23858,-5 -5,-5 -2.76142,0 -5,2.238576 -5,5 0,2.418958 1.71776,4.436712 4,4.899982 L 256,66 l 48,0 0,-2 -46,0 z M 130,133.89998 c 2.28224,-0.46327 4,-2.48102 4,-4.89998 0,-2.76142 -2.23858,-5 -5,-5 -2.76142,0 -5,2.23858 -5,5 0,2.41896 1.71776,4.43671 4,4.89998 L 128,210 l 16,0 0,10.10002 c -2.28224,0.46327 -4,2.48102 -4,4.89998 0,2.76142 2.23858,5 5,5 2.76142,0 5,-2.23858 5,-5 0,-2.41896 -1.71776,-4.43671 -4,-4.89998 L 146,208 130,208 Z M 124.10002,112 c 0.46327,-2.28224 2.48102,-4 4.89998,-4 2.76142,0 5,2.23858 5,5 0,2.76142 -2.23858,5 -5,5 -2.41896,0 -4.43671,-1.71776 -4.89998,-4 L 114,114 l 0,48 -28.100018,0 c -0.46327,2.28224 -2.481024,4 -4.899982,4 -2.761424,0 -5,-2.23858 -5,-5 0,-2.76142 2.238576,-5 5,-5 2.418958,0 4.436712,1.71776 4.899982,4 L 112,160 l 0,-48 z m 112,64 c 0.46327,-2.28224 2.48102,-4 4.89998,-4 2.76142,0 5,2.23858 5,5 0,2.76142 -2.23858,5 -5,5 -2.41896,0 -4.43671,-1.71776 -4.89998,-4 L 226,178 l 0,94 48,0 0,32 -2,0 0,-30 -48,0 0,-98 z m 25.79996,-30 c -0.46327,2.28224 -2.48102,4 -4.89998,4 -2.76142,0 -5,-2.23858 -5,-5 0,-2.76142 2.23858,-5 5,-5 2.41896,0 4.43671,1.71776 4.89998,4 L 274,144 l 0,44.10002 c 2.28224,0.46327 4,2.48102 4,4.89998 0,2.76142 -2.23858,5 -5,5 -2.76142,0 -5,-2.23858 -5,-5 0,-2.41896 1.71776,-4.43671 4,-4.89998 L 272,146 Z M 53.899982,34 C 53.436712,36.28224 51.418958,38 49,38 c -2.761424,0 -5,-2.238576 -5,-5 0,-2.761424 2.238576,-5 5,-5 2.418958,0 4.436712,1.71776 4.899982,4 L 80,32 80,0 l 2,0 0,34 -1,0 z M 114,37.899982 c 2.28224,-0.46327 4,-2.481024 4,-4.899982 0,-2.761424 -2.23858,-5 -5,-5 -2.76142,0 -5,2.238576 -5,5 0,2.418958 1.71776,4.436712 4,4.899982 L 112,64 l -32,0 0,64 -10.100018,0 C 69.436712,125.71776 67.418958,124 65,124 c -2.761424,0 -5,2.23858 -5,5 0,2.76142 2.238576,5 5,5 2.418958,0 4.436712,-1.71776 4.899982,-4 0,0 9.248016,2.852 12.100018,0 0.353553,-0.35355 0,9.16667 0,-1.5 L 82,66 114,66 Z M 101.89998,82 c -0.46327,2.28224 -2.481022,4 -4.89998,4 -2.761424,0 -5,-2.238576 -5,-5 0,-2.761424 2.238576,-5 5,-5 2.418958,0 4.43671,1.71776 4.89998,4 L 128,80 128,37.899982 C 125.71776,37.436712 124,35.418958 124,33 c 0,-2.761424 2.23858,-5 5,-5 2.76142,0 5,2.238576 5,5 0,2.418958 -1.71776,4.436712 -4,4.899982 L 130,82 l -1.5,0 z m 16,-64 c -0.46327,2.28224 -2.48102,4 -4.89998,4 -2.76142,0 -5,-2.238576 -5,-5 0,-2.761424 2.23858,-5 5,-5 2.41896,0 4.43671,1.71776 4.89998,4 L 146,16 l 0,44.100018 c 2.28224,0.46327 4,2.481024 4,4.899982 0,2.761424 -2.23858,5 -5,5 -2.76142,0 -5,-2.238576 -5,-5 0,-2.418958 1.71776,-4.436712 4,-4.899982 L 144,18 Z m 48,32 c -0.46327,2.28224 -2.48102,4 -4.89998,4 -2.76142,0 -5,-2.238576 -5,-5 0,-2.761424 2.23858,-5 5,-5 2.41896,0 4.43671,1.71776 4.89998,4 L 192,48 l 0,-48 50,0 0,2 -48,0 0,48 -1,0 z m -48,-48 C 117.43671,4.28224 115.41896,6 113,6 c -2.76142,0 -5,-2.238576 -5,-5 0,-0.342466 0.0344,-0.67689 0.10002,-1 l 2.07069,0 C 110.06015,0.31278 110,0.649365 110,1 c 0,1.656854 1.34315,3 3,3 1.65685,0 3,-1.343146 3,-3 0,-0.350635 -0.0601,-0.68722 -0.17071,-1 L 178,0 l 0,34 -18,0 0,-12.100018 C 157.71776,21.436712 156,19.418958 156,17 c 0,-2.761424 2.23858,-5 5,-5 2.76142,0 5,2.238576 5,5 0,2.418958 -1.71776,4.436712 -4,4.899982 L 162,32 176,32 176,2 Z M 12.100018,32 C 12.563288,29.71776 14.581042,28 17,28 c 2.761424,0 5,2.238576 5,5 0,2.761424 -2.238576,5 -5,5 -2.418958,0 -4.436712,-1.71776 -4.899982,-4 L 9.414214,34 0,43.414214 0,40.585786 8.585786,32 l 1.62132,0 z M 277.89998,50 c -0.46327,2.28224 -2.48102,4 -4.89998,4 -2.76142,0 -5,-2.238576 -5,-5 0,-2.761424 2.23858,-5 5,-5 2.41896,0 4.43671,1.71776 4.89998,4 L 296.58579,48 304,40.585786 304,43.414214 297.41421,50 295.79289,50 Z M 53.899982,242 c -0.46327,2.28224 -2.481024,4 -4.899982,4 -2.761424,0 -5,-2.23858 -5,-5 0,-2.76142 2.238576,-5 5,-5 2.418958,0 4.436712,1.71776 4.899982,4 L 64,240 64,217.41421 40.585786,194 21.899982,194 c -0.46327,2.28224 -2.481024,4 -4.899982,4 -2.761424,0 -5,-2.23858 -5,-5 0,-2.76142 2.238576,-5 5,-5 2.418958,0 4.436712,1.71776 4.899982,4 L 41.414214,192 66,216.58579 66,242 l -1,0 z m 150.200038,14 c 0.46327,-2.28224 2.48102,-4 4.89998,-4 2.76142,0 5,2.23858 5,5 0,2.76142 -2.23858,5 -5,5 -2.41896,0 -4.43671,-1.71776 -4.89998,-4 L 96,258 96,201.40186 56.59814,162 37.899983,162 c -0.46327,2.28224 -2.481024,4 -4.899982,4 -2.761422,0 -5,-2.23858 -5,-5 0,-2.76142 2.238578,-5 5,-5 2.41896,0 4.436714,1.71776 4.899984,4 L 57.40186,160 98,200.59814 98,256 Z M 97,84 c 1.656854,0 3,-1.343146 3,-3 0,-1.656854 -1.343146,-3 -3,-3 -1.656854,0 -3,1.343146 -3,3 0,1.656854 1.343146,3 3,3 z m 32,32 c 1.65685,0 3,-1.34315 3,-3 0,-1.65685 -1.34315,-3 -3,-3 -1.65685,0 -3,1.34315 -3,3 0,1.65685 1.34315,3 3,3 z m 0,16 c 1.65685,0 3,-1.34315 3,-3 0,-1.65685 -1.34315,-3 -3,-3 -1.65685,0 -3,1.34315 -3,3 0,1.65685 1.34315,3 3,3 z m -48,32 c 1.656854,0 3,-1.34315 3,-3 0,-1.65685 -1.343146,-3 -3,-3 -1.656854,0 -3,1.34315 -3,3 0,1.65685 1.343146,3 3,3 z m 64,64 c 1.65685,0 3,-1.34315 3,-3 0,-1.65685 -1.34315,-3 -3,-3 -1.65685,0 -3,1.34315 -3,3 0,1.65685 1.34315,3 3,3 z m 48,0 c 1.65685,0 3,-1.34315 3,-3 0,-1.65685 -1.34315,-3 -3,-3 -1.65685,0 -3,1.34315 -3,3 0,1.65685 1.34315,3 3,3 z m 0,-64 c 1.65685,0 3,-1.34315 3,-3 0,-1.65685 -1.34315,-3 -3,-3 -1.65685,0 -3,1.34315 -3,3 0,1.65685 1.34315,3 3,3 z m 16,96 c 1.65685,0 3,-1.34315 3,-3 0,-1.65685 -1.34315,-3 -3,-3 -1.65685,0 -3,1.34315 -3,3 0,1.65685 1.34315,3 3,3 z m 0,16 c 1.65685,0 3,-1.34315 3,-3 0,-1.65685 -1.34315,-3 -3,-3 -1.65685,0 -3,1.34315 -3,3 0,1.65685 1.34315,3 3,3 z m 32,-96 c 1.65685,0 3,-1.34315 3,-3 0,-1.65685 -1.34315,-3 -3,-3 -1.65685,0 -3,1.34315 -3,3 0,1.65685 1.34315,3 3,3 z m 16,-32 c 1.65685,0 3,-1.34315 3,-3 0,-1.65685 -1.34315,-3 -3,-3 -1.65685,0 -3,1.34315 -3,3 0,1.65685 1.34315,3 3,3 z m 16,-16 c 1.65685,0 3,-1.34315 3,-3 0,-1.65685 -1.34315,-3 -3,-3 -1.65685,0 -3,1.34315 -3,3 0,1.65685 1.34315,3 3,3 z m -96,0 c 1.65685,0 3,-1.34315 3,-3 0,-1.65685 -1.34315,-3 -3,-3 -1.65685,0 -3,1.34315 -3,3 0,1.65685 1.34315,3 3,3 z m 96,-80 c 1.65685,0 3,-1.343146 3,-3 0,-1.656854 -1.34315,-3 -3,-3 -1.65685,0 -3,1.343146 -3,3 0,1.656854 1.34315,3 3,3 z M 257,36 c 1.65685,0 3,-1.343146 3,-3 0,-1.656854 -1.34315,-3 -3,-3 -1.65685,0 -3,1.343146 -3,3 0,1.656854 1.34315,3 3,3 z m 0,-16 c 1.65685,0 3,-1.343146 3,-3 0,-1.656854 -1.34315,-3 -3,-3 -1.65685,0 -3,1.343146 -3,3 0,1.656854 1.34315,3 3,3 z m -16,0 c 1.65685,0 3,-1.343146 3,-3 0,-1.656854 -1.34315,-3 -3,-3 -1.65685,0 -3,1.343146 -3,3 0,1.656854 1.34315,3 3,3 z M 49,36 c 1.656854,0 3,-1.343146 3,-3 0,-1.656854 -1.343146,-3 -3,-3 -1.656854,0 -3,1.343146 -3,3 0,1.656854 1.343146,3 3,3 z m -32,0 c 1.656854,0 3,-1.343146 3,-3 0,-1.656854 -1.343146,-3 -3,-3 -1.656854,0 -3,1.343146 -3,3 0,1.656854 1.343146,3 3,3 z m 32,208 c 1.656854,0 3,-1.34315 3,-3 0,-1.65685 -1.343146,-3 -3,-3 -1.656854,0 -3,1.34315 -3,3 0,1.65685 1.343146,3 3,3 z M 113,36 c 1.65685,0 3,-1.343146 3,-3 0,-1.656854 -1.34315,-3 -3,-3 -1.65685,0 -3,1.343146 -3,3 0,1.656854 1.34315,3 3,3 z m 16,0 c 1.65685,0 3,-1.343146 3,-3 0,-1.656854 -1.34315,-3 -3,-3 -1.65685,0 -3,1.343146 -3,3 0,1.656854 1.34315,3 3,3 z M 113,20 c 1.65685,0 3,-1.343146 3,-3 0,-1.656854 -1.34315,-3 -3,-3 -1.65685,0 -3,1.343146 -3,3 0,1.656854 1.34315,3 3,3 z m 32,48 c 1.65685,0 3,-1.343146 3,-3 0,-1.656854 -1.34315,-3 -3,-3 -1.65685,0 -3,1.343146 -3,3 0,1.656854 1.34315,3 3,3 z m 16,-16 c 1.65685,0 3,-1.343146 3,-3 0,-1.656854 -1.34315,-3 -3,-3 -1.65685,0 -3,1.343146 -3,3 0,1.656854 1.34315,3 3,3 z m 0,-32 c 1.65685,0 3,-1.343146 3,-3 0,-1.656854 -1.34315,-3 -3,-3 -1.65685,0 -3,1.343146 -3,3 0,1.656854 1.34315,3 3,3 z m 112,176 c 1.65685,0 3,-1.34315 3,-3 0,-1.65685 -1.34315,-3 -3,-3 -1.65685,0 -3,1.34315 -3,3 0,1.65685 1.34315,3 3,3 z m -16,48 c 1.65685,0 3,-1.34315 3,-3 0,-1.65685 -1.34315,-3 -3,-3 -1.65685,0 -3,1.34315 -3,3 0,1.65685 1.34315,3 3,3 z M 17,196 c 1.656854,0 3,-1.34315 3,-3 0,-1.65685 -1.343146,-3 -3,-3 -1.656854,0 -3,1.34315 -3,3 0,1.65685 1.343146,3 3,3 z m 16,-32 c 1.656854,0 3,-1.34315 3,-3 0,-1.65685 -1.343146,-3 -3,-3 -1.656854,0 -3,1.34315 -3,3 0,1.65685 1.343146,3 3,3 z M 17,84 c 1.656854,0 3,-1.343146 3,-3 0,-1.656854 -1.343146,-3 -3,-3 -1.656854,0 -3,1.343146 -3,3 0,1.656854 1.343146,3 3,3 z m 48,48 c 1.656854,0 3,-1.34315 3,-3 0,-1.65685 -1.343146,-3 -3,-3 -1.656854,0 -3,1.34315 -3,3 0,1.65685 1.343146,3 3,3 z M 34,39.792893 34,0 32,0 32,40.585786 8.585786,64 0,64 0,66 9.414213,66 34,41.414214 Z M 2,300.10002 2,258 l 14,0 0,46 2,0 0,-48 -18,0 0,46.17071 C 0.31278,302.06015 0.649365,302 1,302 c 1.30622,0 2.417458,0.83481 2.829294,2 l 2.070688,0 C 5.5023,302.04087 3.95913,300.4977 2,300.10002 Z M 34,241 l 0,63 -2,0 0,-62 -32,0 0,-2 34,0 z M 17,18 l 1,0 0,-18 -2,0 0,16 -16,0 0,2 z m 273,-2 0,-16 -2,0 0,18 16,0 0,-2 z m -32,273 0,15 -2,0 0,-14 -14,0 0,14 -2,0 0,-16 18,0 z m -178,-17 2,0 0,32 -2,0 z m 37.89998,32 c -0.46327,-2.28224 -2.48102,-4 -4.89998,-4 -2.41896,0 -4.43671,1.71776 -4.89998,4 l 2.07069,0 c 0.41183,-1.16519 1.52307,-2 2.82929,-2 1.30622,0 2.41746,0.83481 2.82929,2 z M 5.899982,0 C 5.96557,0.32311 6,0.657534 6,1 6,3.761424 3.761424,6 1,6 0.657534,6 0.32311,5.96557 0,5.899982 L 0,3.829294 C 0.31278,3.939846 0.649365,4 1,4 2.656854,4 4,2.656854 4,1 4,0.649365 3.939846,0.31278 3.829294,0 Z M 300.10002,0 C 300.03443,0.32311 300,0.657534 300,1 c 0,2.418958 1.71776,4.436712 4,4.899982 l 0,-2.070688 C 302.83481,3.417458 302,2.30622 302,1 c 0,-0.350635 0.0602,-0.68722 0.17071,-1 z M 304,300.10002 c -1.95913,0.39768 -3.5023,1.94085 -3.89998,3.89998 l 2.07069,0 c 0.30128,-0.85241 0.97688,-1.52801 1.82929,-1.82929 z"
     id="path4138"
     inkscape:connector-curvature="0"
     style="fill:#000000;fill-opacity:1;fill-rule:evenodd"
     sodipodi:nodetypes="cssscccccssscccccsssccssscccssscccccssscccccsssccssscccssscccccccssscccccccsssccccssscccccsssccccssscccccssscccccccccccssscccsssccccsssccccccccssscccccssscssccccssscccssscccccssscccsssccccsssccccccccccssccssscccccsssccccccsssccccccccsssccccccccssscccccssscccccccssscccccssscccccssssssssssssssssssssssssssssssssssssssssssssssssssssssssssssssssssssssssssssssssssssssssssssssssssssssssssssssssssssssssssssssssssssssssssssssssssssssssssssssssccccccccccccccccccsccccccccccccccccccccccccccccccccccccccccccsccscccssccsscccsccsccccccc" />
</svg>
