<?xml version="1.0" encoding="UTF-8" standalone="no"?>
<svg
   xmlns:dc="http://purl.org/dc/elements/1.1/"
   xmlns:cc="http://creativecommons.org/ns#"
   xmlns:rdf="http://www.w3.org/1999/02/22-rdf-syntax-ns#"
   xmlns:svg="http://www.w3.org/2000/svg"
   xmlns="http://www.w3.org/2000/svg"
   xmlns:sodipodi="http://sodipodi.sourceforge.net/DTD/sodipodi-0.dtd"
   xmlns:inkscape="http://www.inkscape.org/namespaces/inkscape"
   width="304"
   height="304"
   viewBox="0 0 304 304"
   id="svg4146"
   version="1.1"
   inkscape:version="0.91 r13725"
   sodipodi:docname="circuits-2.svg">
  <metadata
     id="metadata4154">
    <rdf:RDF>
      <cc:Work
         rdf:about="">
        <dc:format>image/svg+xml</dc:format>
        <dc:type
           rdf:resource="http://purl.org/dc/dcmitype/StillImage" />
        <dc:title></dc:title>
      </cc:Work>
    </rdf:RDF>
  </metadata>
  <defs
     id="defs4152" />
  <sodipodi:namedview
     pagecolor="#ffffff"
     bordercolor="#666666"
     borderopacity="1"
     objecttolerance="10"
     gridtolerance="10"
     guidetolerance="10"
     inkscape:pageopacity="0"
     inkscape:pageshadow="2"
     inkscape:window-width="1608"
     inkscape:window-height="974"
     id="namedview4150"
     showgrid="false"
     inkscape:zoom="1.7785267"
     inkscape:cx="256.33898"
     inkscape:cy="119.79661"
     inkscape:window-x="628"
     inkscape:window-y="10"
     inkscape:window-maximized="0"
     inkscape:current-layer="svg4146" />
  <path
     d="m 44.1,224 c 0.463,-2.282 2.48,-4 4.9,-4 2.76,0 5,2.24 5,5 0,2.76 -2.24,5 -5,5 -2.42,0 -4.437,-1.718 -4.9,-4 L 0,226 0,224 Z m 160,48 c 0.463,-2.282 2.48,-4 4.9,-4 2.76,0 5,2.24 5,5 0,2.76 -2.24,5 -5,5 -2.42,0 -4.437,-1.718 -4.9,-4 l -122.1,0 0,-2 z m 57.8,-46 c -0.463,2.282 -2.48,4 -4.9,4 -2.76,0 -5,-2.24 -5,-5 0,-2.76 2.24,-5 5,-5 2.42,0 4.437,1.718 4.9,4 l 42.1,0 0,2 z M 12.1,80 c 0.463,-2.282 2.48,-4 4.9,-4 2.76,0 5,2.24 5,5 0,2.76 -2.24,5 -5,5 -2.42,0 -4.437,-1.718 -4.9,-4 L 0,82 0,80 Z M 194,220.1 c 2.282,0.463 4,2.48 4,4.9 0,2.76 -2.24,5 -5,5 -2.76,0 -5,-2.24 -5,-5 0,-2.42 1.718,-4.437 4,-4.9 l 0,-54.2 c -2.282,-0.463 -4,-2.48 -4,-4.9 0,-2.76 2.24,-5 5,-5 2.76,0 5,2.24 5,5 0,2.42 -1.718,4.437 -4,4.9 z M 242,21.9 c 2.282,-0.463 4,-2.48 4,-4.9 0,-2.76 -2.24,-5 -5,-5 -2.76,0 -5,2.24 -5,5 0,2.42 1.718,4.437 4,4.9 l 0,60.1 64,0 0,-2 -62,0 z M 117.9,242 c -0.463,2.282 -2.48,4 -4.9,4 -2.76,0 -5,-2.24 -5,-5 0,-2.76 2.24,-5 5,-5 2.42,0 4.437,1.718 4.9,4 l 58.1,0 0,-74.1 c -2.282,-0.463 -4,-2.48 -4,-4.9 0,-2.76 2.24,-5 5,-5 2.76,0 5,2.24 5,5 0,2.42 -1.718,4.437 -4,4.9 l 0,76.1 z m -16,-64 c -0.463,2.282 -2.48,4 -4.9,4 -2.76,0 -5,-2.24 -5,-5 0,-2.76 2.24,-5 5,-5 2.42,0 4.437,1.718 4.9,4 l 12.1,0 0,48 10.1,0 c 0.463,-2.282 2.48,-4 4.9,-4 2.76,0 5,2.24 5,5 0,2.76 -2.24,5 -5,5 -2.42,0 -4.437,-1.718 -4.9,-4 l -12.1,0 0,-48 z M 66,284.1 c 2.282,0.463 4,2.48 4,4.9 0,2.76 -2.24,5 -5,5 -2.76,0 -5,-2.24 -5,-5 0,-2.42 1.718,-4.437 4,-4.9 l 0,-10.1 -14,0 0,30 -2,0 0,-32 18,0 z M 98,101.9 c 2.282,-0.463 4,-2.48 4,-4.9 0,-2.76 -2.24,-5 -5,-5 -2.76,0 -5,2.24 -5,5 0,2.42 1.718,4.437 4,4.9 l 0,42.1 -42.1,0 c -0.463,-2.282 -2.48,-4 -4.9,-4 -2.76,0 -5,2.24 -5,5 0,2.76 2.24,5 5,5 2.42,0 4.437,-1.718 4.9,-4 L 98,146 Z M 53.9,34 c -0.463,2.282 -2.48,4 -4.9,4 -2.76,0 -5,-2.24 -5,-5 0,-2.76 2.24,-5 5,-5 2.42,0 4.437,1.718 4.9,4 l 26.1,0 0,-32 2,0 0,34 z m 48,48 c -0.463,2.282 -2.48,4 -4.9,4 -2.76,0 -5,-2.24 -5,-5 0,-2.76 2.24,-5 5,-5 2.42,0 4.437,1.718 4.9,4 l 26.1,0 0,-42.1 c -2.282,-0.463 -4,-2.48 -4,-4.9 0,-2.76 2.24,-5 5,-5 2.76,0 5,2.24 5,5 0,2.42 -1.718,4.437 -4,4.9 l 0,44.1 z m 16,-64 c -0.463,2.282 -2.48,4 -4.9,4 -2.76,0 -5,-2.24 -5,-5 0,-2.76 2.24,-5 5,-5 2.42,0 4.437,1.718 4.9,4 l 28.1,0 0,44.1 c 2.282,0.463 4,2.48 4,4.9 0,2.76 -2.24,5 -5,5 -2.76,0 -5,-2.24 -5,-5 0,-2.42 1.718,-4.437 4,-4.9 L 144,18 Z m 102.2,270 c 0.463,-2.282 2.48,-4 4.9,-4 2.76,0 5,2.24 5,5 0,2.76 -2.24,5 -5,5 -2.42,0 -4.437,-1.718 -4.9,-4 l -122.1,0 0,14 -2,0 0,-16 z M 53.9,18 c -0.463,2.282 -2.48,4 -4.9,4 -2.76,0 -5,-2.24 -5,-5 0,-2.76 2.24,-5 5,-5 2.42,0 4.437,1.718 4.9,4 L 64,16 64,2 48,2 48,0 66,0 66,18 Z m 64,80 c -0.463,2.282 -2.48,4 -4.9,4 -2.76,0 -5,-2.24 -5,-5 0,-2.76 2.24,-5 5,-5 2.42,0 4.437,1.718 4.9,4 l 19.1,0 32,-32 39,0 0,-42.1 c -2.282,-0.463 -4,-2.48 -4,-4.9 0,-2.76 2.24,-5 5,-5 2.76,0 5,2.24 5,5 0,2.42 -1.718,4.437 -4,4.9 l 0,44.1 -40.172,0 -32,32 z m 28.1,90.1 c 2.282,0.463 4,2.48 4,4.9 0,2.76 -2.24,5 -5,5 -2.76,0 -5,-2.24 -5,-5 0,-2.42 1.718,-4.437 4,-4.9 L 144,111.587 175.586,80 224,80 224,21.9 c -2.282,-0.463 -4,-2.48 -4,-4.9 0,-2.76 2.24,-5 5,-5 2.76,0 5,2.24 5,5 0,2.42 -1.718,4.437 -4,4.9 L 226,82 176.414,82 146,112.414 Z m -128,-32 c 2.282,0.463 4,2.48 4,4.9 0,2.76 -2.24,5 -5,5 -2.76,0 -5,-2.24 -5,-5 0,-2.42 1.718,-4.437 4,-4.9 l 0,-3.513 48,-48 0,-56.587 32,0 0,-48 2,0 0,50 -32,0 0,55.413 -48,48 z M 50,53.9 c 2.282,-0.463 4,-2.48 4,-4.9 0,-2.76 -2.24,-5 -5,-5 -2.76,0 -5,2.24 -5,5 0,2.42 1.718,4.437 4,4.9 l 0,42.686 -48,48 0,65.414 28.1,0 c 0.463,2.282 2.48,4 4.9,4 2.76,0 5,-2.24 5,-5 0,-2.76 -2.24,-5 -5,-5 -2.42,0 -4.437,1.718 -4.9,4 l -26.1,0 0,-62.586 48,-48 z m -16,16 c 2.282,-0.463 4,-2.48 4,-4.9 0,-2.76 -2.24,-5 -5,-5 -2.76,0 -5,2.24 -5,5 0,2.42 1.718,4.437 4,4.9 l 0,18.686 -32,32 0,2.828 34,-34 z M 261.9,210 c -0.463,2.282 -2.48,4 -4.9,4 -2.76,0 -5,-2.24 -5,-5 0,-2.76 2.24,-5 5,-5 2.42,0 4.437,1.718 4.9,4 l 26.1,0 0,-71.413 16,-16 0,2.827 -14,14 0,72.586 z M 97,100 c 1.657,0 3,-1.343 3,-3 0,-1.657 -1.343,-3 -3,-3 -1.657,0 -3,1.343 -3,3 0,1.657 1.343,3 3,3 z m 0,-16 c 1.657,0 3,-1.343 3,-3 0,-1.657 -1.343,-3 -3,-3 -1.657,0 -3,1.343 -3,3 0,1.657 1.343,3 3,3 z m 16,16 c 1.657,0 3,-1.343 3,-3 0,-1.657 -1.343,-3 -3,-3 -1.657,0 -3,1.343 -3,3 0,1.657 1.343,3 3,3 z m -16,80 c 1.657,0 3,-1.343 3,-3 0,-1.657 -1.343,-3 -3,-3 -1.657,0 -3,1.343 -3,3 0,1.657 1.343,3 3,3 z m 32,48 c 1.657,0 3,-1.343 3,-3 0,-1.657 -1.343,-3 -3,-3 -1.657,0 -3,1.343 -3,3 0,1.657 1.343,3 3,3 z m -16,16 c 1.657,0 3,-1.343 3,-3 0,-1.657 -1.343,-3 -3,-3 -1.657,0 -3,1.343 -3,3 0,1.657 1.343,3 3,3 z m 32,-48 c 1.657,0 3,-1.343 3,-3 0,-1.657 -1.343,-3 -3,-3 -1.657,0 -3,1.343 -3,3 0,1.657 1.343,3 3,3 z m 48,32 c 1.657,0 3,-1.343 3,-3 0,-1.657 -1.343,-3 -3,-3 -1.657,0 -3,1.343 -3,3 0,1.657 1.343,3 3,3 z m -16,-64 c 1.657,0 3,-1.343 3,-3 0,-1.657 -1.343,-3 -3,-3 -1.657,0 -3,1.343 -3,3 0,1.657 1.343,3 3,3 z m 16,0 c 1.657,0 3,-1.343 3,-3 0,-1.657 -1.343,-3 -3,-3 -1.657,0 -3,1.343 -3,3 0,1.657 1.343,3 3,3 z m 16,112 c 1.657,0 3,-1.343 3,-3 0,-1.657 -1.343,-3 -3,-3 -1.657,0 -3,1.343 -3,3 0,1.657 1.343,3 3,3 z m 16,16 c 1.657,0 3,-1.343 3,-3 0,-1.657 -1.343,-3 -3,-3 -1.657,0 -3,1.343 -3,3 0,1.657 1.343,3 3,3 z M 241,20 c 1.657,0 3,-1.343 3,-3 0,-1.657 -1.343,-3 -3,-3 -1.657,0 -3,1.343 -3,3 0,1.657 1.343,3 3,3 z m -16,0 c 1.657,0 3,-1.343 3,-3 0,-1.657 -1.343,-3 -3,-3 -1.657,0 -3,1.343 -3,3 0,1.657 1.343,3 3,3 z m -16,0 c 1.657,0 3,-1.343 3,-3 0,-1.657 -1.343,-3 -3,-3 -1.657,0 -3,1.343 -3,3 0,1.657 1.343,3 3,3 z M 49,36 c 1.657,0 3,-1.343 3,-3 0,-1.657 -1.343,-3 -3,-3 -1.657,0 -3,1.343 -3,3 0,1.657 1.343,3 3,3 z m 0,16 c 1.657,0 3,-1.343 3,-3 0,-1.657 -1.343,-3 -3,-3 -1.657,0 -3,1.343 -3,3 0,1.657 1.343,3 3,3 z M 33,68 c 1.657,0 3,-1.343 3,-3 0,-1.657 -1.343,-3 -3,-3 -1.657,0 -3,1.343 -3,3 0,1.657 1.343,3 3,3 z M 49,20 c 1.657,0 3,-1.343 3,-3 0,-1.657 -1.343,-3 -3,-3 -1.657,0 -3,1.343 -3,3 0,1.657 1.343,3 3,3 z m 16,272 c 1.657,0 3,-1.343 3,-3 0,-1.657 -1.343,-3 -3,-3 -1.657,0 -3,1.343 -3,3 0,1.657 1.343,3 3,3 z M 49,228 c 1.657,0 3,-1.343 3,-3 0,-1.657 -1.343,-3 -3,-3 -1.657,0 -3,1.343 -3,3 0,1.657 1.343,3 3,3 z M 33,212 c 1.657,0 3,-1.343 3,-3 0,-1.657 -1.343,-3 -3,-3 -1.657,0 -3,1.343 -3,3 0,1.657 1.343,3 3,3 z M 129,36 c 1.657,0 3,-1.343 3,-3 0,-1.657 -1.343,-3 -3,-3 -1.657,0 -3,1.343 -3,3 0,1.657 1.343,3 3,3 z M 113,20 c 1.657,0 3,-1.343 3,-3 0,-1.657 -1.343,-3 -3,-3 -1.657,0 -3,1.343 -3,3 0,1.657 1.343,3 3,3 z m 32,48 c 1.657,0 3,-1.343 3,-3 0,-1.657 -1.343,-3 -3,-3 -1.657,0 -3,1.343 -3,3 0,1.657 1.343,3 3,3 z m 112,144 c 1.657,0 3,-1.343 3,-3 0,-1.657 -1.343,-3 -3,-3 -1.657,0 -3,1.343 -3,3 0,1.657 1.343,3 3,3 z m 0,16 c 1.657,0 3,-1.343 3,-3 0,-1.657 -1.343,-3 -3,-3 -1.657,0 -3,1.343 -3,3 0,1.657 1.343,3 3,3 z M 17,164 c 1.657,0 3,-1.343 3,-3 0,-1.657 -1.343,-3 -3,-3 -1.657,0 -3,1.343 -3,3 0,1.657 1.343,3 3,3 z m 0,-80 c 1.657,0 3,-1.343 3,-3 0,-1.657 -1.343,-3 -3,-3 -1.657,0 -3,1.343 -3,3 0,1.657 1.343,3 3,3 z m 32,64 c 1.657,0 3,-1.343 3,-3 0,-1.657 -1.343,-3 -3,-3 -1.657,0 -3,1.343 -3,3 0,1.657 1.343,3 3,3 z M 0,92.1 C 0.323,92.034 0.658,92 1,92 c 2.76,0 5,2.24 5,5 0,2.76 -2.24,5 -5,5 -0.342,0 -0.677,-0.034 -1,-0.1 L 0,99.83 C 0.313,99.94 0.65,100 1,100 2.657,100 4,98.657 4,97 4,95.343 2.657,94 1,94 0.65,94 0.313,94.06 0,94.17 Z m 80,179.9 2,0 0,32 -2,0 z"
     id="path4148"
     style="fill:#000000;fill-opacity:1;fill-rule:evenodd"
     inkscape:connector-curvature="0"
     sodipodi:nodetypes="cssscccccssscccccssscccccssscccccsssccssscccssscccccccssscccsssccccsssccccssscccccssscccccccccssscccsssccccssscccccccssscccsssccccssscccsssccccssscccccccssscccccccccssscccccsssccccccssscccccsssccccccssscccccccccccccssscccccsssccccccssscccccccsssccccccccsssssssssssssssssssssssssssssssssssssssssssssssssssssssssssssssssssssssssssssssssssssssssssssssssssssssssssssssssssssssssssssssssssssssssssssssssssssscsssccsssccccccc" />
</svg>
