<svg xmlns="http://www.w3.org/2000/svg" width="304" height="304" viewBox="0 0 304 304" id="svg4136"><path d="M204.1 272c.4633-2.2822 2.481-4 4.9-4 2.7614 0 5 2.2386 5 5s-2.2386 5-5 5c-2.419 0-4.4367-1.7178-4.9-4H82v-2zm57.8-30c-.4633 2.2822-2.481 4-4.9 4-2.7614 0-5-2.2386-5-5s2.2386-5 5-5c2.419 0 4.4367 1.7178 4.9 4H304v2zm6.2-114c.4633-2.2822 2.481-4 4.9-4 2.7614 0 5 2.2386 5 5s-2.2386 5-5 5c-2.419 0-4.4367-1.7178-4.9-4h-86.2c-.4633 2.2822-2.481 4-4.9 4-2.7614 0-5-2.2386-5-5s2.2386-5 5-5c2.419 0 4.4367 1.7178 4.9 4zm-256-48c.4633-2.2822 2.481-4 4.9-4 2.7614 0 5 2.2386 5 5s-2.2386 5-5 5c-2.419 0-4.4367-1.7178-4.9-4H0v-2zM258 12.1c2.2822.4633 4 2.481 4 4.9 0 2.7614-2.2386 5-5 5s-5-2.2386-5-5c0-2.419 1.7178-4.4367 4-4.9V0h2zm-64 208c2.2822.4633 4 2.481 4 4.9 0 2.7614-2.2386 5-5 5s-5-2.2386-5-5c0-2.419 1.7178-4.4367 4-4.9v-54.2c-2.2822-.4633-4-2.481-4-4.9 0-2.7614 2.2386-5 5-5s5 2.2386 5 5c0 2.419-1.7178 4.4367-4 4.9zm48-198.2c2.2822-.4633 4-2.481 4-4.9 0-2.7614-2.2386-5-5-5s-5 2.2386-5 5c0 2.419 1.7178 4.4367 4 4.9V82h64v-2h-62zm16 16c2.2822-.4633 4-2.481 4-4.9 0-2.7614-2.2386-5-5-5s-5 2.2386-5 5c0 2.419 1.7178 4.4367 4 4.9V66h48v-2h-46zm-128 96c2.2822-.4633 4-2.481 4-4.9 0-2.7614-2.2386-5-5-5s-5 2.2386-5 5c0 2.419 1.7178 4.4367 4 4.9V210h16v10.1c-2.2822.4633-4 2.481-4 4.9 0 2.7614 2.2386 5 5 5s5-2.2386 5-5c0-2.419-1.7178-4.4367-4-4.9V208h-16zm-5.9-21.9c.4633-2.2822 2.481-4 4.9-4 2.7614 0 5 2.2386 5 5s-2.2386 5-5 5c-2.419 0-4.4367-1.7178-4.9-4H114v48H85.9c-.4633 2.2822-2.481 4-4.9 4-2.7614 0-5-2.2386-5-5s2.2386-5 5-5c2.419 0 4.4367 1.7178 4.9 4H112v-48zm112 64c.4633-2.2822 2.481-4 4.9-4 2.7614 0 5 2.2386 5 5s-2.2386 5-5 5c-2.419 0-4.4367-1.7178-4.9-4H226v94h48v32h-2v-30h-48v-98zm25.8-30c-.4633 2.2822-2.481 4-4.9 4-2.7614 0-5-2.2386-5-5s2.2386-5 5-5c2.419 0 4.4367 1.7178 4.9 4H274v44.1c2.2822.4633 4 2.481 4 4.9 0 2.7614-2.2386 5-5 5s-5-2.2386-5-5c0-2.419 1.7178-4.4367 4-4.9V146zM53.9 34c-.4633 2.2822-2.481 4-4.9 4-2.7614 0-5-2.2386-5-5s2.2386-5 5-5c2.419 0 4.4367 1.7178 4.9 4H80V0h2v34h-1zm60.1 3.9c2.2822-.4633 4-2.481 4-4.9 0-2.7614-2.2386-5-5-5s-5 2.2386-5 5c0 2.419 1.7178 4.4367 4 4.9V64H80v64H69.9c-.4633-2.2822-2.481-4-4.9-4-2.7614 0-5 2.2386-5 5s2.2386 5 5 5c2.419 0 4.4367-1.7178 4.9-4 0 0 9.248 2.852 12.1 0 .3536-.3535 0 9.1667 0-1.5V66h32zM101.9 82c-.4633 2.2822-2.481 4-4.9 4-2.7614 0-5-2.2386-5-5s2.2386-5 5-5c2.419 0 4.4367 1.7178 4.9 4H128V37.9c-2.2822-.4633-4-2.481-4-4.9 0-2.7614 2.2386-5 5-5s5 2.2386 5 5c0 2.419-1.7178 4.4367-4 4.9V82h-1.5zm16-64c-.4633 2.2822-2.481 4-4.9 4-2.7614 0-5-2.2386-5-5s2.2386-5 5-5c2.419 0 4.4367 1.7178 4.9 4H146v44.1c2.2822.4633 4 2.481 4 4.9 0 2.7614-2.2386 5-5 5s-5-2.2386-5-5c0-2.419 1.7178-4.4367 4-4.9V18zm48 32c-.4633 2.2822-2.481 4-4.9 4-2.7614 0-5-2.2386-5-5s2.2386-5 5-5c2.419 0 4.4367 1.7178 4.9 4H192V0h50v2h-48v48h-1zm-48-48c-.4633 2.2822-2.481 4-4.9 4-2.7614 0-5-2.2386-5-5 0-.3425.0344-.677.1-1h2.0707C110.06.3128 110 .6494 110 1c0 1.657 1.3432 3 3 3s3-1.343 3-3c0-.3506-.06-.6872-.1707-1H178v34h-18V21.9c-2.2822-.4633-4-2.481-4-4.9 0-2.7614 2.2386-5 5-5s5 2.2386 5 5c0 2.419-1.7178 4.4367-4 4.9V32h14V2zM12.1 32c.4633-2.2822 2.481-4 4.9-4 2.7614 0 5 2.2386 5 5s-2.2386 5-5 5c-2.419 0-4.4367-1.7178-4.9-4H9.4142L0 43.4142v-2.8284L8.5858 32h1.6213zm265.8 18c-.4633 2.2822-2.481 4-4.9 4-2.7614 0-5-2.2386-5-5s2.2386-5 5-5c2.419 0 4.4367 1.7178 4.9 4h18.6858L304 40.5858v2.8284L297.4142 50h-1.6213zm-224 192c-.4633 2.2822-2.481 4-4.9 4-2.7614 0-5-2.2386-5-5s2.2386-5 5-5c2.419 0 4.4367 1.7178 4.9 4H64v-22.5858L40.5858 194H21.9c-.4633 2.2822-2.481 4-4.9 4-2.7614 0-5-2.2386-5-5s2.2386-5 5-5c2.419 0 4.4367 1.7178 4.9 4h19.5142L66 216.5858V242h-1zm150.2 14c.4633-2.2822 2.481-4 4.9-4 2.7614 0 5 2.2386 5 5s-2.2386 5-5 5c-2.419 0-4.4367-1.7178-4.9-4H96v-56.598L56.598 162H37.9c-.4633 2.2822-2.481 4-4.9 4-2.7614 0-5-2.2386-5-5s2.2386-5 5-5c2.419 0 4.4367 1.7178 4.9 4h19.502L98 200.598V256zM97 84c1.657 0 3-1.343 3-3s-1.343-3-3-3-3 1.343-3 3 1.343 3 3 3zm32 32c1.6568 0 3-1.3432 3-3s-1.3432-3-3-3-3 1.3432-3 3 1.3432 3 3 3zm0 16c1.6568 0 3-1.3432 3-3s-1.3432-3-3-3-3 1.3432-3 3 1.3432 3 3 3zm-48 32c1.657 0 3-1.3432 3-3s-1.343-3-3-3-3 1.3432-3 3 1.343 3 3 3zm64 64c1.6568 0 3-1.3432 3-3s-1.3432-3-3-3-3 1.3432-3 3 1.3432 3 3 3zm48 0c1.6568 0 3-1.3432 3-3s-1.3432-3-3-3-3 1.3432-3 3 1.3432 3 3 3zm0-64c1.6568 0 3-1.3432 3-3s-1.3432-3-3-3-3 1.3432-3 3 1.3432 3 3 3zm16 96c1.6568 0 3-1.3432 3-3s-1.3432-3-3-3-3 1.3432-3 3 1.3432 3 3 3zm0 16c1.6568 0 3-1.3432 3-3s-1.3432-3-3-3-3 1.3432-3 3 1.3432 3 3 3zm32-96c1.6568 0 3-1.3432 3-3s-1.3432-3-3-3-3 1.3432-3 3 1.3432 3 3 3zm16-32c1.6568 0 3-1.3432 3-3s-1.3432-3-3-3-3 1.3432-3 3 1.3432 3 3 3zm16-16c1.6568 0 3-1.3432 3-3s-1.3432-3-3-3-3 1.3432-3 3 1.3432 3 3 3zm-96 0c1.6568 0 3-1.3432 3-3s-1.3432-3-3-3-3 1.3432-3 3 1.3432 3 3 3zm96-80c1.6568 0 3-1.343 3-3s-1.3432-3-3-3-3 1.343-3 3 1.3432 3 3 3zm-16-16c1.6568 0 3-1.343 3-3s-1.3432-3-3-3-3 1.343-3 3 1.3432 3 3 3zm0-16c1.6568 0 3-1.343 3-3s-1.3432-3-3-3-3 1.343-3 3 1.3432 3 3 3zm-16 0c1.6568 0 3-1.343 3-3s-1.3432-3-3-3-3 1.343-3 3 1.3432 3 3 3zM49 36c1.657 0 3-1.343 3-3s-1.343-3-3-3-3 1.343-3 3 1.343 3 3 3zm-32 0c1.657 0 3-1.343 3-3s-1.343-3-3-3-3 1.343-3 3 1.343 3 3 3zm32 208c1.657 0 3-1.3432 3-3s-1.343-3-3-3-3 1.3432-3 3 1.343 3 3 3zm64-208c1.6568 0 3-1.343 3-3s-1.3432-3-3-3-3 1.343-3 3 1.3432 3 3 3zm16 0c1.6568 0 3-1.343 3-3s-1.3432-3-3-3-3 1.343-3 3 1.3432 3 3 3zm-16-16c1.6568 0 3-1.343 3-3s-1.3432-3-3-3-3 1.343-3 3 1.3432 3 3 3zm32 48c1.6568 0 3-1.343 3-3s-1.3432-3-3-3-3 1.343-3 3 1.3432 3 3 3zm16-16c1.6568 0 3-1.343 3-3s-1.3432-3-3-3-3 1.343-3 3 1.3432 3 3 3zm0-32c1.6568 0 3-1.343 3-3s-1.3432-3-3-3-3 1.343-3 3 1.3432 3 3 3zm112 176c1.6568 0 3-1.3432 3-3s-1.3432-3-3-3-3 1.3432-3 3 1.3432 3 3 3zm-16 48c1.6568 0 3-1.3432 3-3s-1.3432-3-3-3-3 1.3432-3 3 1.3432 3 3 3zM17 196c1.657 0 3-1.3432 3-3s-1.343-3-3-3-3 1.3432-3 3 1.343 3 3 3zm16-32c1.657 0 3-1.3432 3-3s-1.343-3-3-3-3 1.3432-3 3 1.343 3 3 3zM17 84c1.657 0 3-1.343 3-3s-1.343-3-3-3-3 1.343-3 3 1.343 3 3 3zm48 48c1.657 0 3-1.3432 3-3s-1.343-3-3-3-3 1.3432-3 3 1.343 3 3 3zM34 39.793V0h-2v40.5858L8.5858 64H0v2h9.4142L34 41.4142zM2 300.1V258h14v46h2v-48H0v46.1707C.3128 302.0602.6494 302 1 302c1.3062 0 2.4175.8348 2.8293 2H5.9c-.3977-1.959-1.941-3.5023-3.9-3.9zM34 241v63h-2v-62H0v-2h34zM17 18h1V0h-2v16H0v2zm273-2V0h-2v18h16v-2zm-32 273v15h-2v-14h-14v14h-2v-16h18zM80 272h2v32h-2zm37.9 32c-.4633-2.2822-2.481-4-4.9-4-2.419 0-4.4367 1.7178-4.9 4h2.0707c.4118-1.1652 1.523-2 2.8293-2 1.3062 0 2.4175.8348 2.8293 2zM5.9 0c.0656.323.1.6575.1 1 0 2.7614-2.2386 5-5 5-.3425 0-.677-.0344-1-.1V3.8293C.3128 3.9398.6494 4 1 4c1.657 0 3-1.343 3-3 0-.3506-.0602-.6872-.1707-1zm294.2 0c-.0656.323-.1.6575-.1 1 0 2.419 1.7178 4.4367 4 4.9V3.8293c-1.1652-.4118-2-1.523-2-2.8293 0-.3506.0602-.6872.1707-1zm3.9 300.1c-1.959.3977-3.5023 1.941-3.9 3.9h2.0707c.3013-.8524.977-1.528 1.8293-1.8293z" id="path4138" fill-rule="evenodd"/></svg>