<svg xmlns="http://www.w3.org/2000/svg" width="304" height="304" viewBox="0 0 304 304" id="svg4146"><path d="M44.1 224c.463-2.282 2.48-4 4.9-4 2.76 0 5 2.24 5 5s-2.24 5-5 5c-2.42 0-4.437-1.718-4.9-4H0v-2zm160 48c.463-2.282 2.48-4 4.9-4 2.76 0 5 2.24 5 5s-2.24 5-5 5c-2.42 0-4.437-1.718-4.9-4H82v-2zm57.8-46c-.463 2.282-2.48 4-4.9 4-2.76 0-5-2.24-5-5s2.24-5 5-5c2.42 0 4.437 1.718 4.9 4H304v2zM12.1 80c.463-2.282 2.48-4 4.9-4 2.76 0 5 2.24 5 5s-2.24 5-5 5c-2.42 0-4.437-1.718-4.9-4H0v-2zM194 220.1c2.282.463 4 2.48 4 4.9 0 2.76-2.24 5-5 5s-5-2.24-5-5c0-2.42 1.718-4.437 4-4.9v-54.2c-2.282-.463-4-2.48-4-4.9 0-2.76 2.24-5 5-5s5 2.24 5 5c0 2.42-1.718 4.437-4 4.9zm48-198.2c2.282-.463 4-2.48 4-4.9 0-2.76-2.24-5-5-5s-5 2.24-5 5c0 2.42 1.718 4.437 4 4.9V82h64v-2h-62zM117.9 242c-.463 2.282-2.48 4-4.9 4-2.76 0-5-2.24-5-5s2.24-5 5-5c2.42 0 4.437 1.718 4.9 4H176v-74.1c-2.282-.463-4-2.48-4-4.9 0-2.76 2.24-5 5-5s5 2.24 5 5c0 2.42-1.718 4.437-4 4.9V242zm-16-64c-.463 2.282-2.48 4-4.9 4-2.76 0-5-2.24-5-5s2.24-5 5-5c2.42 0 4.437 1.718 4.9 4H114v48h10.1c.463-2.282 2.48-4 4.9-4 2.76 0 5 2.24 5 5s-2.24 5-5 5c-2.42 0-4.437-1.718-4.9-4H112v-48zM66 284.1c2.282.463 4 2.48 4 4.9 0 2.76-2.24 5-5 5s-5-2.24-5-5c0-2.42 1.718-4.437 4-4.9V274H50v30h-2v-32h18zm32-182.2c2.282-.463 4-2.48 4-4.9 0-2.76-2.24-5-5-5s-5 2.24-5 5c0 2.42 1.718 4.437 4 4.9V144H53.9c-.463-2.282-2.48-4-4.9-4-2.76 0-5 2.24-5 5s2.24 5 5 5c2.42 0 4.437-1.718 4.9-4H98zM53.9 34c-.463 2.282-2.48 4-4.9 4-2.76 0-5-2.24-5-5s2.24-5 5-5c2.42 0 4.437 1.718 4.9 4H80V0h2v34zm48 48c-.463 2.282-2.48 4-4.9 4-2.76 0-5-2.24-5-5s2.24-5 5-5c2.42 0 4.437 1.718 4.9 4H128V37.9c-2.282-.463-4-2.48-4-4.9 0-2.76 2.24-5 5-5s5 2.24 5 5c0 2.42-1.718 4.437-4 4.9V82zm16-64c-.463 2.282-2.48 4-4.9 4-2.76 0-5-2.24-5-5s2.24-5 5-5c2.42 0 4.437 1.718 4.9 4H146v44.1c2.282.463 4 2.48 4 4.9 0 2.76-2.24 5-5 5s-5-2.24-5-5c0-2.42 1.718-4.437 4-4.9V18zm102.2 270c.463-2.282 2.48-4 4.9-4 2.76 0 5 2.24 5 5s-2.24 5-5 5c-2.42 0-4.437-1.718-4.9-4H98v14h-2v-16zM53.9 18c-.463 2.282-2.48 4-4.9 4-2.76 0-5-2.24-5-5s2.24-5 5-5c2.42 0 4.437 1.718 4.9 4H64V2H48V0h18v18zm64 80c-.463 2.282-2.48 4-4.9 4-2.76 0-5-2.24-5-5s2.24-5 5-5c2.42 0 4.437 1.718 4.9 4H137l32-32h39V21.9c-2.282-.463-4-2.48-4-4.9 0-2.76 2.24-5 5-5s5 2.24 5 5c0 2.42-1.718 4.437-4 4.9V66h-40.172l-32 32zm28.1 90.1c2.282.463 4 2.48 4 4.9 0 2.76-2.24 5-5 5s-5-2.24-5-5c0-2.42 1.718-4.437 4-4.9v-76.513L175.586 80H224V21.9c-2.282-.463-4-2.48-4-4.9 0-2.76 2.24-5 5-5s5 2.24 5 5c0 2.42-1.718 4.437-4 4.9V82h-49.586L146 112.414zm-128-32c2.282.463 4 2.48 4 4.9 0 2.76-2.24 5-5 5s-5-2.24-5-5c0-2.42 1.718-4.437 4-4.9v-3.513l48-48V48h32V0h2v50H66v55.413l-48 48zM50 53.9c2.282-.463 4-2.48 4-4.9 0-2.76-2.24-5-5-5s-5 2.24-5 5c0 2.42 1.718 4.437 4 4.9v42.686l-48 48V210h28.1c.463 2.282 2.48 4 4.9 4 2.76 0 5-2.24 5-5s-2.24-5-5-5c-2.42 0-4.437 1.718-4.9 4H2v-62.586l48-48zm-16 16c2.282-.463 4-2.48 4-4.9 0-2.76-2.24-5-5-5s-5 2.24-5 5c0 2.42 1.718 4.437 4 4.9v18.686l-32 32v2.828l34-34zM261.9 210c-.463 2.282-2.48 4-4.9 4-2.76 0-5-2.24-5-5s2.24-5 5-5c2.42 0 4.437 1.718 4.9 4H288v-71.413l16-16v2.827l-14 14V210zM97 100c1.657 0 3-1.343 3-3s-1.343-3-3-3-3 1.343-3 3 1.343 3 3 3zm0-16c1.657 0 3-1.343 3-3s-1.343-3-3-3-3 1.343-3 3 1.343 3 3 3zm16 16c1.657 0 3-1.343 3-3s-1.343-3-3-3-3 1.343-3 3 1.343 3 3 3zm-16 80c1.657 0 3-1.343 3-3s-1.343-3-3-3-3 1.343-3 3 1.343 3 3 3zm32 48c1.657 0 3-1.343 3-3s-1.343-3-3-3-3 1.343-3 3 1.343 3 3 3zm-16 16c1.657 0 3-1.343 3-3s-1.343-3-3-3-3 1.343-3 3 1.343 3 3 3zm32-48c1.657 0 3-1.343 3-3s-1.343-3-3-3-3 1.343-3 3 1.343 3 3 3zm48 32c1.657 0 3-1.343 3-3s-1.343-3-3-3-3 1.343-3 3 1.343 3 3 3zm-16-64c1.657 0 3-1.343 3-3s-1.343-3-3-3-3 1.343-3 3 1.343 3 3 3zm16 0c1.657 0 3-1.343 3-3s-1.343-3-3-3-3 1.343-3 3 1.343 3 3 3zm16 112c1.657 0 3-1.343 3-3s-1.343-3-3-3-3 1.343-3 3 1.343 3 3 3zm16 16c1.657 0 3-1.343 3-3s-1.343-3-3-3-3 1.343-3 3 1.343 3 3 3zm16-272c1.657 0 3-1.343 3-3s-1.343-3-3-3-3 1.343-3 3 1.343 3 3 3zm-16 0c1.657 0 3-1.343 3-3s-1.343-3-3-3-3 1.343-3 3 1.343 3 3 3zm-16 0c1.657 0 3-1.343 3-3s-1.343-3-3-3-3 1.343-3 3 1.343 3 3 3zM49 36c1.657 0 3-1.343 3-3s-1.343-3-3-3-3 1.343-3 3 1.343 3 3 3zm0 16c1.657 0 3-1.343 3-3s-1.343-3-3-3-3 1.343-3 3 1.343 3 3 3zM33 68c1.657 0 3-1.343 3-3s-1.343-3-3-3-3 1.343-3 3 1.343 3 3 3zm16-48c1.657 0 3-1.343 3-3s-1.343-3-3-3-3 1.343-3 3 1.343 3 3 3zm16 272c1.657 0 3-1.343 3-3s-1.343-3-3-3-3 1.343-3 3 1.343 3 3 3zm-16-64c1.657 0 3-1.343 3-3s-1.343-3-3-3-3 1.343-3 3 1.343 3 3 3zm-16-16c1.657 0 3-1.343 3-3s-1.343-3-3-3-3 1.343-3 3 1.343 3 3 3zm96-176c1.657 0 3-1.343 3-3s-1.343-3-3-3-3 1.343-3 3 1.343 3 3 3zm-16-16c1.657 0 3-1.343 3-3s-1.343-3-3-3-3 1.343-3 3 1.343 3 3 3zm32 48c1.657 0 3-1.343 3-3s-1.343-3-3-3-3 1.343-3 3 1.343 3 3 3zm112 144c1.657 0 3-1.343 3-3s-1.343-3-3-3-3 1.343-3 3 1.343 3 3 3zm0 16c1.657 0 3-1.343 3-3s-1.343-3-3-3-3 1.343-3 3 1.343 3 3 3zM17 164c1.657 0 3-1.343 3-3s-1.343-3-3-3-3 1.343-3 3 1.343 3 3 3zm0-80c1.657 0 3-1.343 3-3s-1.343-3-3-3-3 1.343-3 3 1.343 3 3 3zm32 64c1.657 0 3-1.343 3-3s-1.343-3-3-3-3 1.343-3 3 1.343 3 3 3zM0 92.1c.323-.066.658-.1 1-.1 2.76 0 5 2.24 5 5s-2.24 5-5 5c-.342 0-.677-.034-1-.1v-2.07c.313.11.65.17 1 .17 1.657 0 3-1.343 3-3s-1.343-3-3-3c-.35 0-.687.06-1 .17zM80 272h2v32h-2z" id="path4148" fill-rule="evenodd"/></svg>